# xmcd
# Track frame offsets:
# 150
# 18595
# 37280
# 55160
# 72590
# 88855
# 106695
# 125385
# 144035
# 161435
#
# Disc length: 2371 seconds
# Revision: 0
# Processed by: cddbd v1.4PL0 Copyright (c) Steve Scherf et al.
# Submitted via: VisiTrax 2.9.5.181 - For more info visit www.synapsa.com
#
DISCID=8409410a
DTITLE=Leann Rimes - Songs of Leann Rimes
DYEAR=1998
DGENRE=
TTITLE0=How Do I Live  (Karaoke version)
TTITLE1=Unchained Melody  (Karaoke version)
TTITLE2=On The Side of Angels  (Karaoke version)
TTITLE3=You Light Up My Life  (Karaoke version)
TTITLE4=Honesty  (Karaoke version)
TTITLE5=How Do I Live  (vocal version)
TTITLE6=Melody, Unchained  (vocal version)
TTITLE7=On The Side of Angels  (vocal version)
TTITLE8=You Light Up My Life  (vocal version)
TTITLE9=Honesty  (vocal version)
EXTD=
EXTT0=
EXTT1=
EXTT2=
EXTT3=
EXTT4=
EXTT5=
EXTT6=
EXTT7=
EXTT8=
EXTT9=
PLAYORDER=
